<?xml version="1.0" standalone="no"?>
<!DOCTYPE svg PUBLIC "-//W3C//DTD SVG 20010904//EN"
 "http://www.w3.org/TR/2001/REC-SVG-20010904/DTD/svg10.dtd">
<svg version="1.0" xmlns="http://www.w3.org/2000/svg"
 width="288.000000pt" height="288.000000pt" viewBox="0 0 288.000000 288.000000"
 preserveAspectRatio="xMidYMid meet">

<g transform="translate(0.000000,288.000000) scale(0.100000,-0.100000)"
fill="#000000" stroke="none">
<path d="M2335 1956 c-88 -51 -222 -130 -299 -175 -76 -45 -173 -100 -215
-123 -78 -42 -682 -387 -691 -395 -2 -2 4 -19 15 -39 27 -51 108 -122 173
-152 50 -24 69 -27 162 -27 94 0 111 3 166 28 37 17 82 50 115 83 29 30 56 54
60 54 12 0 339 -201 339 -208 0 -4 -24 -36 -53 -72 -170 -210 -441 -320 -711
-290 -245 28 -446 154 -587 367 l-35 52 -188 -109 c-103 -59 -192 -112 -198
-118 -22 -22 66 -81 487 -323 242 -139 457 -261 477 -271 46 -22 128 -23 171
-2 126 63 918 526 947 554 22 21 42 51 49 75 7 27 11 215 11 575 0 502 -5 610
-28 610 -4 0 -79 -42 -167 -94z"/>
</g>
</svg>
