<?xml version="1.0" standalone="no"?>
<!DOCTYPE svg PUBLIC "-//W3C//DTD SVG 20010904//EN"
 "http://www.w3.org/TR/2001/REC-SVG-20010904/DTD/svg10.dtd">
<svg version="1.0" xmlns="http://www.w3.org/2000/svg"
 width="288.000000pt" height="288.000000pt" viewBox="0 0 288.000000 288.000000"
 preserveAspectRatio="xMidYMid meet">

<g transform="translate(0.000000,288.000000) scale(0.100000,-0.100000)"
fill="#000000" stroke="none">
<path d="M2394 1997 c-126 -73 -245 -144 -264 -158 -42 -31 -336 -199 -348
-199 -5 0 -78 -40 -163 -88 -85 -49 -238 -137 -342 -196 l-187 -108 17 -30
c29 -49 100 -108 171 -141 61 -29 76 -32 163 -32 90 0 99 2 171 38 52 25 91
53 122 88 25 28 46 55 46 60 0 19 28 6 196 -92 l174 -100 -39 -58 c-83 -122
-228 -240 -363 -294 -189 -76 -427 -76 -616 0 -135 54 -280 172 -363 295 l-39
57 -240 -137 c-132 -75 -240 -142 -240 -147 -1 -31 121 -109 581 -374 279
-160 519 -295 533 -301 35 -13 117 -13 152 0 14 6 254 141 533 301 533 307
579 338 600 415 7 26 11 240 11 644 0 574 -4 669 -29 684 -4 3 -111 -54 -237
-127z m-224 -462 l0 -45 45 0 45 0 0 -50 0 -50 -45 0 -45 0 0 -45 0 -45 -50 0
-50 0 0 45 0 45 -50 0 -50 0 0 50 0 50 50 0 50 0 0 45 0 45 50 0 50 0 0 -45z
m330 0 l0 -45 50 0 50 0 0 -50 0 -50 -50 0 -50 0 0 -45 0 -45 -45 0 -45 0 0
45 0 45 -50 0 -50 0 0 50 0 50 50 0 50 0 0 45 0 45 45 0 45 0 0 -45z"/>
</g>
</svg>
